<?xml version="1.0" standalone="no"?><!DOCTYPE svg PUBLIC "-//W3C//DTD SVG 1.1//EN" "http://www.w3.org/Graphics/SVG/1.1/DTD/svg11.dtd"><svg t="1575012126262" class="icon" viewBox="0 0 1024 1024" version="1.1" xmlns="http://www.w3.org/2000/svg" p-id="20493" width="45" height="45" xmlns:xlink="http://www.w3.org/1999/xlink"><defs><style type="text/css"></style></defs><path d="M832 490.666667v384H192V490.666667h640m0-42.666667H192a42.666667 42.666667 0 0 0-42.666667 42.666667v384a42.666667 42.666667 0 0 0 42.666667 42.666666h640a42.666667 42.666667 0 0 0 42.666667-42.666666V490.666667a42.666667 42.666667 0 0 0-42.666667-42.666667z" p-id="20494" fill="#9E9E9E"></path><path d="M512 149.333333a192 192 0 0 1 135.466667 61.653334A184.746667 184.746667 0 0 1 704 330.666667V448H320v-117.333333a184.746667 184.746667 0 0 1 56.533333-119.68A192 192 0 0 1 512 149.333333m0-42.666666c-129.706667 0-234.666667 123.946667-234.666667 224V490.666667h469.333334v-160C746.666667 230.613333 641.706667 106.666667 512 106.666667zM618.666667 661.333333H405.333333a21.333333 21.333333 0 0 0 0 42.666667h213.333334a21.333333 21.333333 0 0 0 0-42.666667z" p-id="20495" fill="#9E9E9E"></path></svg>